<?xml version="1.0" standalone="no"?>
<!DOCTYPE svg PUBLIC "-//W3C//DTD SVG 20010904//EN"
 "http://www.w3.org/TR/2001/REC-SVG-20010904/DTD/svg10.dtd">
<svg version="1.0" xmlns="http://www.w3.org/2000/svg"
 width="1136.000000pt" height="1136.000000pt" viewBox="0 0 1136.000000 1136.000000"
 preserveAspectRatio="xMidYMid meet">
<metadata>
Created by potrace 1.14, written by Peter Selinger 2001-2017
</metadata>
<g transform="translate(0.000000,1136.000000) scale(0.100000,-0.100000)"
fill="#000000" stroke="none">
<path d="M1790 11190 c-8 -5 -5 -5118 3 -5205 2 -27 8 -79 11 -115 4 -36 9
-85 12 -110 7 -71 13 -122 18 -155 13 -83 34 -215 41 -250 8 -46 16 -83 25
-125 5 -25 12 -58 15 -75 4 -25 65 -264 80 -315 2 -8 13 -46 24 -85 11 -38 32
-104 46 -145 15 -41 28 -82 30 -91 2 -8 10 -31 17 -50 8 -18 16 -38 18 -44 1
-5 6 -20 11 -33 5 -13 9 -29 9 -37 0 -8 4 -16 9 -19 5 -4 15 -29 22 -56 7 -28
16 -50 21 -50 4 0 7 -3 6 -7 0 -5 3 -17 7 -28 4 -11 16 -40 26 -65 9 -25 27
-66 39 -92 11 -26 21 -50 21 -53 0 -2 15 -35 33 -72 18 -38 40 -84 49 -103
l16 -35 336 340 c185 187 670 677 1078 1088 408 412 896 904 1085 1095 189
191 687 694 1107 1117 420 424 943 951 1162 1172 219 221 722 729 1118 1128
1524 1538 1396 1406 1393 1444 l-3 34 -3938 1 c-2167 1 -3942 -1 -3947 -4z
m7755 -82 c2 -2 -239 -249 -536 -548 -297 -300 -810 -817 -1139 -1150 -330
-333 -814 -821 -1076 -1085 -457 -461 -1362 -1375 -2194 -2215 -320 -322
-1217 -1228 -2046 -2065 l-131 -132 -28 60 c-15 33 -34 76 -42 96 -8 20 -21
50 -29 66 -7 17 -36 91 -64 165 -28 74 -55 144 -59 155 -11 24 -52 144 -56
159 -6 30 -18 72 -24 81 -3 6 -7 16 -8 23 -4 19 -8 33 -23 82 -7 25 -15 50
-16 55 -2 6 -10 35 -19 65 -9 30 -17 62 -17 70 0 8 -5 21 -11 28 -5 6 -7 12
-5 12 3 0 -1 26 -9 58 -18 72 -53 238 -58 276 -3 15 -7 35 -9 45 -5 15 -13 65
-21 136 -2 17 -5 30 -6 30 -1 0 -3 16 -4 35 -2 19 -6 49 -9 65 -8 44 -18 139
-32 300 -3 39 -7 1209 -9 2602 -2 2292 -1 2532 13 2535 23 4 7663 1 7667 -4z"/>
<path d="M9058 9558 c-323 -326 -785 -793 -1027 -1037 -243 -245 -441 -448
-441 -453 0 -4 -4 -8 -8 -8 -9 0 -83 -74 -649 -646 -179 -181 -657 -664 -1063
-1074 -781 -788 -1097 -1106 -2298 -2319 -411 -415 -763 -770 -784 -789 -31
-31 -35 -38 -25 -56 7 -12 15 -23 18 -26 3 -3 16 -25 30 -50 13 -25 26 -47 29
-50 3 -3 10 -14 17 -25 49 -80 108 -171 115 -173 4 -2 8 -8 8 -13 0 -6 48 -79
107 -162 58 -84 116 -165 127 -182 12 -16 23 -32 26 -35 3 -3 17 -21 30 -40
13 -19 27 -37 30 -40 3 -3 38 -48 78 -101 39 -52 80 -104 89 -115 10 -10 30
-35 44 -54 15 -19 35 -45 45 -57 11 -12 28 -32 38 -45 58 -70 122 -143 129
-146 4 -2 7 -7 7 -12 0 -4 19 -28 42 -53 24 -25 54 -58 67 -74 76 -91 527
-563 579 -607 7 -6 41 -38 76 -71 50 -48 225 -211 280 -260 6 -6 45 -39 86
-75 41 -36 77 -67 80 -70 3 -3 34 -30 70 -59 36 -30 70 -60 75 -65 6 -6 44
-38 85 -70 41 -33 77 -62 80 -66 3 -3 32 -25 65 -50 33 -25 62 -47 65 -50 3
-3 39 -31 80 -63 105 -79 106 -80 131 -97 12 -8 31 -23 41 -33 10 -9 22 -17
26 -17 5 0 17 -8 28 -19 43 -40 53 -36 195 67 124 90 371 281 423 327 6 6 49
42 96 80 47 38 96 80 110 92 14 12 34 30 46 40 19 16 113 99 183 162 271 242
694 669 926 936 28 31 57 65 66 74 8 9 49 57 90 106 41 50 76 92 79 95 3 3 52
64 108 135 113 143 121 153 186 240 25 33 50 65 56 72 5 7 10 15 10 18 0 4 6
12 13 19 6 8 18 22 25 32 7 11 44 63 82 117 39 53 70 100 70 102 0 3 5 11 10
18 22 25 140 209 140 218 0 5 5 9 10 9 6 0 10 7 10 15 0 8 5 15 10 15 6 0 10
5 10 11 0 7 16 36 35 65 19 29 35 55 35 59 0 4 8 19 19 33 10 15 30 48 43 73
48 85 53 94 63 101 6 4 6 8 1 8 -5 0 -3 6 3 14 16 19 194 359 197 376 0 3 19
43 41 90 52 108 146 331 184 435 16 44 34 89 39 100 5 11 30 85 56 165 25 80
49 152 52 160 6 19 9 29 17 60 8 33 9 37 25 90 16 54 18 60 23 85 3 11 12 47
21 81 8 33 18 71 20 85 2 13 5 24 6 24 1 0 3 9 5 20 1 11 5 31 8 45 11 48 25
120 32 170 3 19 8 46 11 60 4 14 8 42 10 64 2 21 7 42 10 47 2 5 7 35 9 66 3
32 7 74 10 93 17 125 24 221 31 415 7 197 11 4015 4 4015 -3 0 -270 -267 -592
-592z"/>
</g>
</svg>
