<?xml version="1.0" encoding="utf-8"?>
<svg version="1.0" width="18px" height="23.175px" xmlns="http://www.w3.org/2000/svg">
  <path d="M 17.885 0.035 C 16.945 0.321 15.947 0.848 14.997 1.558 C 14.178 2.171 13.395 2.948 12.739 3.797 C 11.104 5.919 10.046 8.535 9.498 11.817 C 9.377 12.544 9.3 12.915 9.161 13.466 C 8.86 14.676 8.475 15.737 7.976 16.746 C 7.153 18.409 6.044 19.812 4.697 20.891 C 4.248 21.253 3.904 21.493 3.453 21.765 C 2.409 22.394 1.286 22.847 0.237 23.057 C 0.12 23.083 0.015 23.101 0.002 23.1 C -0.01 23.1 0.055 23.061 0.151 23.012 C 0.392 22.892 0.598 22.772 0.831 22.616 C 2.457 21.539 3.942 19.862 5.186 17.701 C 5.431 17.276 5.82 16.52 6.015 16.094 C 6.052 16.011 6.106 15.892 6.133 15.833 C 6.543 14.947 7.018 13.661 7.362 12.508 C 7.57 11.81 7.705 11.3 7.902 10.455 C 7.967 10.186 8.023 9.951 8.027 9.934 C 8.036 9.905 8.029 9.902 7.879 9.894 C 7.795 9.889 7.687 9.88 7.643 9.871 C 7.601 9.862 7.493 9.843 7.406 9.826 C 6.392 9.636 5.175 8.666 3.9 7.033 C 3.277 6.237 2.591 5.228 2.027 4.282 C 1.617 3.596 1.316 3.066 0.955 2.386 C 0.889 2.262 0.831 2.155 0.825 2.147 C 0.798 2.111 0.214 0.936 0.222 0.929 C 0.224 0.925 0.253 0.968 0.282 1.02 C 0.523 1.457 1.177 2.504 1.476 2.934 C 2.033 3.737 2.406 4.221 2.891 4.778 C 3.102 5.02 3.573 5.496 3.793 5.69 C 4.085 5.947 4.49 6.265 4.527 6.265 C 4.535 6.265 4.557 6.278 4.577 6.292 C 4.645 6.346 5.002 6.564 5.118 6.624 C 5.279 6.705 5.46 6.785 5.486 6.784 C 5.499 6.782 5.548 6.802 5.595 6.826 C 5.762 6.908 6.065 6.961 6.378 6.961 C 7.248 6.958 8.198 6.556 9.156 5.781 C 9.418 5.571 9.63 5.376 9.924 5.077 C 10.144 4.851 10.241 4.742 10.328 4.615 C 10.726 4.033 11.206 3.457 11.725 2.935 C 13.052 1.607 14.638 0.69 16.38 0.245 C 16.905 0.112 17.584 0.001 17.901 0 L 18.001 0 L 17.885 0.035 Z" style="fill: #004c8c"/>
</svg>
