<?xml version="1.0" encoding="utf-8"?>
<svg version="1.0" width="18px" height="18px" xmlns="http://www.w3.org/2000/svg">
  <path d="M 13.936 0.027 C 13.204 0.25 12.426 0.661 11.686 1.214 C 11.048 1.692 10.438 2.297 9.927 2.959 C 8.653 4.612 7.828 6.651 7.401 9.208 C 7.307 9.775 7.247 10.064 7.139 10.493 C 6.904 11.436 6.604 12.263 6.215 13.049 C 5.574 14.345 4.71 15.438 3.66 16.279 C 3.31 16.561 3.042 16.748 2.691 16.96 C 1.877 17.45 1.002 17.803 0.185 17.966 C 0.094 17.987 0.012 18.001 0.002 18 C -0.008 18 0.043 17.97 0.118 17.931 C 0.306 17.838 0.466 17.744 0.648 17.623 C 1.915 16.784 3.072 15.477 4.041 13.793 C 4.232 13.462 4.535 12.873 4.687 12.541 C 4.716 12.476 4.758 12.383 4.779 12.337 C 5.099 11.647 5.469 10.645 5.737 9.746 C 5.899 9.203 6.004 8.805 6.158 8.147 C 6.208 7.937 6.252 7.754 6.255 7.741 C 6.262 7.718 6.256 7.716 6.14 7.71 C 6.074 7.706 5.99 7.699 5.956 7.692 C 5.923 7.685 5.839 7.67 5.771 7.657 C 4.981 7.509 4.033 6.753 3.039 5.48 C 2.554 4.86 2.019 4.074 1.58 3.337 C 1.26 2.802 1.026 2.389 0.744 1.859 C 0.693 1.763 0.648 1.679 0.643 1.673 C 0.622 1.645 0.167 0.729 0.173 0.724 C 0.175 0.721 0.197 0.754 0.22 0.795 C 0.408 1.135 0.917 1.951 1.15 2.286 C 1.584 2.912 1.875 3.289 2.253 3.723 C 2.417 3.912 2.784 4.283 2.956 4.434 C 3.183 4.634 3.499 4.882 3.528 4.882 C 3.534 4.882 3.551 4.892 3.567 4.903 C 3.62 4.945 3.898 5.115 3.988 5.162 C 4.114 5.225 4.255 5.287 4.275 5.286 C 4.285 5.285 4.323 5.3 4.36 5.319 C 4.49 5.383 4.726 5.424 4.97 5.424 C 5.648 5.422 6.388 5.109 7.135 4.505 C 7.339 4.341 7.504 4.189 7.733 3.956 C 7.905 3.78 7.98 3.695 8.048 3.596 C 8.358 3.143 8.732 2.694 9.136 2.287 C 10.17 1.252 11.406 0.538 12.764 0.191 C 13.173 0.087 13.702 0.001 13.949 0 L 14.027 0 L 13.936 0.027 Z" style="fill: #004c8c"/>
</svg>