<?xml version="1.0" encoding="utf-8"?>
<svg viewBox="0 0 240 240" xmlns="http://www.w3.org/2000/svg">
  <defs>
    <linearGradient gradientUnits="userSpaceOnUse" x1="71.607" y1="357.545" x2="71.607" y2="443.315" id="gradient-0" gradientTransform="matrix(0.808166, -0.594542, 0.585499, 0.81104, -212.942628, 110.894204)">
      <stop offset="0" style="stop-color: rgb(8.2353% 48.235% 76.863%)"/>
      <stop offset="1" style="stop-color: rgb(220, 27, 120);"/>
    </linearGradient>
    <linearGradient gradientUnits="userSpaceOnUse" x1="104.277" y1="358.897" x2="104.277" y2="477.877" id="gradient-1" gradientTransform="matrix(0.819688, -0.578243, 0.379296, 0.547918, -150.594483, 219.527101)">
      <stop offset="0" style="stop-color: rgb(8.2353% 48.235% 76.863%)"/>
      <stop offset="1" style="stop-color: rgb(220, 27, 120);"/>
    </linearGradient>
  </defs>
  <g id="XMLID_185_" style="transform-origin: 89.217px 420.563px;" transform="matrix(1.023401, 0, 0, 1.013787, 31.297934, -344.440771)">
    <path id="XMLID_204_" class="st1" d="M 42.3 355.34 L 42.3 411.79 L 42.3 411.79 C 42.3 422.42 45.08 432.27 49.26 441.11 L 135.03 355.34 L 42.3 355.34 Z" style="fill: url(&quot;#gradient-0&quot;); stroke-miterlimit: 4; stroke-width: 1.00077px; stroke: none; transform-origin: 42.3px 355.34px;"/>
    <path id="XMLID_203_" class="st0" d="M 135.03 367.02 L 53.32 448.73 C 67.01 471.66 88.58 486 88.58 486 L 88.75 486 C 88.75 486 135.03 455.26 135.03 411.79 L 135.01 411.79 L 135.03 367.02 Z" style="fill: url(&quot;#gradient-1&quot;); transform-origin: 42.3px 355.34px;"/>
  </g>
  <g transform="matrix(1.147246, 0, 0, 1.162923, -34.618164, 157.898773)">
    <path d="M138.899 25.761h-.837v5.23h.837c1.388 0 2.489-1.145 2.489-2.615 0-1.443-1.101-2.615-2.49-2.615m0 8.717h-.836v5.23h-3.352V22.276h4.189c3.23 0 5.84 2.74 5.84 6.1 0 3.387-2.61 6.102-5.84 6.102m14.539-7.072l-1.077 6.201h2.154l-1.077-6.201zm2.105 12.302l-.43-2.614h-3.327l-.479 2.614h-3.375l2.993-17.432h5.026l3.015 17.432h-3.423zm13.937-13.947h-.838v5.23h.839c1.388 0 2.489-1.145 2.489-2.615 0-1.443-1.101-2.615-2.49-2.615zm2.418 13.947l-1.843-5.255c-.095 0-.24 0-.335.025h-1.078v5.23h-3.35V22.276h4.189c3.23 0 5.84 2.74 5.84 6.1a6.374 6.374 0 01-2.178 4.782l2.298 6.55h-3.543zm10.25 0h3.35V22.276h-3.35zm15.155.423c-2.729 0-4.93-2.316-4.93-5.156v-.497h3.352v.497c0 .922.692 1.67 1.578 1.67.958 0 1.628-.698 1.628-1.67 0-.672 0-1.344-2.25-2.39-1.963-.947-4.188-2.39-4.188-5.652 0-2.815 2.178-5.105 4.907-5.105 2.752 0 4.883 2.265 4.883 5.08v.597h-3.352v-.597c0-.897-.67-1.594-1.53-1.594-.84 0-1.557.746-1.557 1.619 0 .647 0 1.395 2.225 2.44 2.083 1.022 4.214 2.439 4.214 5.602 0 2.889-2.179 5.156-4.98 5.156M123.02 21.264c-.535-.493-3.009-2.608-6.548-3.196v.245c2.202.932 5.502 3.387 5.68 9.063.005.17.134.306.296.306a.305.305 0 00.298-.292l.373-5.872a.318.318 0 00-.1-.254M121.9 38.225c-4.601 5.418-14.516 5.456-15.296-6.683-.636-9.403 3.713-12.351 5.754-13.227v-.21c-3.412.56-9.936 3.016-9.936 13.4 0 8.599 6.658 12.774 11.207 12.774 5.098 0 7.613-3.312 8.764-5.71.158-.33-.258-.619-.492-.344m-58.145 5.266c-1.214-.056-2.294-.51-2.294-2.558V20.804a.32.32 0 00-.137-.266l-2.974-2.027c-.234-.159-.522.068-.456.352.078.337.104.713.104 1.2v20.87c0 2.047-1.051 2.502-2.259 2.558a.31.31 0 00-.287.316v.154h8.59v-.154a.31.31 0 00-.287-.316m35.174 0c-1.214-.056-2.294-.51-2.294-2.558V20.804a.32.32 0 00-.137-.266l-2.974-2.027c-.234-.159-.522.068-.456.352.079.337.104.713.104 1.2v20.87c0 2.047-1.05 2.502-2.259 2.558a.31.31 0 00-.288.316v.154h8.591v-.154a.31.31 0 00-.288-.316m-19.235-1.173V21.916l.005-3.183a.31.31 0 00-.303-.318h-2.959a.31.31 0 00-.303.318v22.69h.029v.151c0 .109.052.21.14.268l3.045 2.04c.234.156.52-.07.454-.354-.081-.339-.108-.72-.108-1.21M67.78 18.564l-.004-.144-.01.166a.315.315 0 00-.036.126l-.389 6.312-.051.785a.31.31 0 00.301.339h.423l-.009-.273c.002-.006.005-.012.006-.02.45-4.529 2.86-6.457 4.456-7.119v-.321h-4.435a.296.296 0 00-.251.149m20.324.148c0-.007-.005-.013-.005-.021l-.018-.272-.005.182a.303.303 0 00-.275-.186h-4.435v.286c1.661.662 4.234 2.551 4.47 7.14a.31.31 0 00.045.143l-.004.164h.388a.312.312 0 00.302-.34l-.41-6.226-.053-.87z" style="fill: rgb(0, 0, 0);"/>
    <path d="M 134.362 61.597 L 135.196 61.597 L 135.196 0.75 L 134.362 0.75 L 134.362 61.597 Z M 140.663 59.942 L 138.976 59.942 L 138.976 61.237 L 140.982 61.237 L 140.982 61.934 L 138.063 61.934 L 138.063 57.402 L 140.976 57.402 L 140.976 58.102 L 138.976 58.102 L 138.976 59.242 L 140.663 59.242 L 140.663 59.942 Z M 145.302 61.934 L 144.389 61.934 L 142.554 58.878 L 142.536 58.88 L 142.536 61.934 L 141.623 61.934 L 141.623 57.402 L 142.536 57.402 L 144.37 60.456 L 144.39 60.452 L 144.39 57.402 L 145.302 57.402 L 145.302 61.934 Z M 148.512 60.751 C 148.518 60.59 148.451 60.436 148.329 60.331 C 148.207 60.226 147.994 60.126 147.687 60.032 C 147.161 59.875 146.764 59.69 146.491 59.476 C 146.219 59.261 146.084 58.97 146.084 58.6 C 146.084 58.23 146.237 57.926 146.543 57.69 C 146.85 57.455 147.24 57.337 147.715 57.337 C 148.219 57.337 148.625 57.463 148.932 57.717 C 149.239 57.97 149.389 58.302 149.378 58.713 L 149.372 58.731 L 148.487 58.731 C 148.487 58.505 148.419 58.331 148.28 58.211 C 148.143 58.089 147.95 58.028 147.702 58.028 C 147.478 58.028 147.303 58.082 147.18 58.19 C 147.059 58.293 146.992 58.445 146.996 58.604 C 146.996 58.757 147.062 58.884 147.196 58.982 C 147.33 59.081 147.56 59.185 147.887 59.295 C 148.387 59.436 148.769 59.621 149.03 59.848 C 149.293 60.075 149.425 60.373 149.425 60.746 C 149.425 61.133 149.273 61.439 148.968 61.664 C 148.664 61.887 148.262 61.999 147.762 61.999 C 147.272 61.999 146.852 61.878 146.501 61.635 C 146.15 61.392 145.979 61.031 145.99 60.549 L 145.996 60.53 L 146.881 60.53 C 146.881 60.798 146.959 60.995 147.118 61.121 C 147.276 61.249 147.491 61.311 147.762 61.311 C 148.006 61.311 148.192 61.261 148.32 61.159 C 148.446 61.062 148.517 60.91 148.512 60.751 M 152.697 59.942 L 151.01 59.942 L 151.01 61.237 L 153.016 61.237 L 153.016 61.934 L 150.097 61.934 L 150.097 57.402 L 153.01 57.402 L 153.01 58.102 L 151.01 58.102 L 151.01 59.242 L 152.697 59.242 L 152.697 59.942 Z M 153.72 61.934 L 154.632 61.934 L 154.632 57.402 L 153.72 57.402 L 153.72 61.934 Z M 159.024 61.315 C 158.882 61.499 158.671 61.66 158.39 61.795 C 158.108 61.932 157.746 62 157.302 62 C 156.752 62 156.301 61.827 155.951 61.482 C 155.601 61.139 155.427 60.692 155.427 60.142 L 155.427 59.196 C 155.427 58.648 155.597 58.202 155.936 57.856 C 156.276 57.509 156.712 57.337 157.246 57.337 C 157.802 57.337 158.227 57.469 158.524 57.731 C 158.82 57.993 158.964 58.343 158.952 58.781 L 158.946 58.8 L 158.086 58.8 C 158.086 58.56 158.016 58.372 157.876 58.238 C 157.738 58.104 157.535 58.038 157.267 58.038 C 157.003 58.03 156.752 58.15 156.592 58.36 C 156.422 58.575 156.336 58.85 156.336 59.189 L 156.336 60.141 C 156.336 60.484 156.424 60.763 156.598 60.978 C 156.774 61.195 157.008 61.302 157.302 61.302 C 157.475 61.308 157.649 61.286 157.815 61.236 C 157.924 61.204 158.024 61.148 158.108 61.072 L 158.108 60.195 L 157.233 60.195 L 157.233 59.565 L 159.024 59.565 L 159.024 61.315 L 159.024 61.315 Z M 163.478 61.934 L 162.566 61.934 L 160.73 58.878 L 160.712 58.88 L 160.712 61.934 L 159.799 61.934 L 159.799 57.402 L 160.712 57.402 L 162.547 60.456 L 162.566 60.452 L 162.566 57.402 L 163.478 57.402 L 163.478 61.934 Z M 166.917 59.942 L 165.229 59.942 L 165.229 61.237 L 167.236 61.237 L 167.236 61.934 L 164.316 61.934 L 164.316 57.402 L 167.23 57.402 L 167.23 58.102 L 165.23 58.102 L 165.23 59.242 L 166.917 59.242 L 166.917 59.942 Z M 170.23 60.742 L 170.25 60.742 L 171.418 57.402 L 172.609 57.402 L 172.609 61.934 L 171.697 61.934 L 171.697 58.84 L 171.677 58.836 L 170.552 61.933 L 169.932 61.933 L 168.808 58.83 L 168.788 58.834 L 168.788 61.933 L 167.876 61.933 L 167.876 57.402 L 169.074 57.402 L 170.23 60.742 Z M 176.047 59.942 L 174.36 59.942 L 174.36 61.237 L 176.366 61.237 L 176.366 61.934 L 173.446 61.934 L 173.446 57.402 L 176.36 57.402 L 176.36 58.102 L 174.36 58.102 L 174.36 59.242 L 176.047 59.242 L 176.047 59.942 Z M 180.686 61.934 L 179.773 61.934 L 177.938 58.878 L 177.92 58.88 L 177.92 61.934 L 177.007 61.934 L 177.007 57.402 L 177.92 57.402 L 179.754 60.456 L 179.774 60.452 L 179.774 57.402 L 180.686 57.402 L 180.686 61.934 Z M 184.606 58.103 L 183.305 58.103 L 183.305 61.934 L 182.392 61.934 L 182.392 58.103 L 181.111 58.103 L 181.111 57.403 L 184.606 57.403 L 184.606 58.103 Z M 188.26 60.751 C 188.266 60.59 188.199 60.436 188.077 60.331 C 187.955 60.226 187.741 60.126 187.434 60.032 C 186.909 59.875 186.511 59.69 186.239 59.476 C 185.967 59.261 185.832 58.97 185.832 58.6 C 185.832 58.23 185.984 57.926 186.29 57.69 C 186.597 57.455 186.988 57.337 187.463 57.337 C 187.967 57.337 188.373 57.463 188.68 57.717 C 188.987 57.97 189.136 58.302 189.126 58.713 L 189.12 58.731 L 188.235 58.731 C 188.235 58.505 188.166 58.331 188.028 58.211 C 187.891 58.089 187.698 58.028 187.45 58.028 C 187.225 58.028 187.051 58.082 186.928 58.19 C 186.807 58.293 186.74 58.445 186.744 58.604 C 186.744 58.757 186.81 58.884 186.944 58.982 C 187.077 59.081 187.308 59.185 187.635 59.295 C 188.135 59.436 188.516 59.621 188.778 59.848 C 189.041 60.075 189.172 60.373 189.172 60.746 C 189.172 61.133 189.02 61.439 188.716 61.664 C 188.411 61.887 188.01 61.999 187.51 61.999 C 187.02 61.999 186.6 61.878 186.248 61.635 C 185.898 61.392 185.726 61.031 185.738 60.549 L 185.743 60.53 L 186.628 60.53 C 186.628 60.798 186.707 60.995 186.866 61.121 C 187.023 61.249 187.238 61.311 187.51 61.311 C 187.753 61.311 187.94 61.261 188.067 61.159 C 188.193 61.062 188.265 60.91 188.26 60.751 M 193.452 57.403 L 193.452 60.368 C 193.452 60.878 193.282 61.278 192.942 61.568 C 192.602 61.855 192.162 62 191.62 62 C 191.08 62 190.643 61.855 190.306 61.567 C 189.969 61.278 189.801 60.879 189.801 60.368 L 189.801 57.403 L 190.717 57.403 L 190.717 60.368 C 190.717 60.672 190.797 60.902 190.96 61.063 C 191.123 61.223 191.342 61.302 191.62 61.302 C 191.901 61.302 192.125 61.222 192.288 61.062 C 192.453 60.902 192.536 60.672 192.536 60.368 L 192.536 57.403 L 193.452 57.403 L 193.452 57.403 Z M 195.155 59.59 L 195.984 59.59 C 196.238 59.59 196.431 59.522 196.562 59.384 C 196.695 59.241 196.766 59.051 196.759 58.856 C 196.766 58.657 196.696 58.464 196.563 58.316 C 196.433 58.174 196.24 58.103 195.984 58.103 L 195.155 58.103 L 195.155 59.591 L 195.155 59.59 Z M 195.155 60.291 L 195.155 61.934 L 194.243 61.934 L 194.243 57.403 L 195.984 57.403 C 196.507 57.403 196.918 57.536 197.218 57.801 C 197.518 58.066 197.668 58.416 197.668 58.85 C 197.668 59.284 197.518 59.632 197.218 59.895 C 196.918 60.159 196.508 60.291 195.984 60.291 L 195.155 60.291 L 195.155 60.291 Z M 199.963 56.127 L 200.979 56.127 L 200.985 56.146 L 200.119 56.954 L 199.34 56.954 L 199.963 56.127 L 199.963 56.127 Z M 200.922 59.943 L 199.234 59.943 L 199.234 61.237 L 201.241 61.237 L 201.241 61.935 L 198.321 61.935 L 198.321 57.403 L 201.235 57.403 L 201.235 58.103 L 199.235 58.103 L 199.235 59.243 L 200.922 59.243 L 200.922 59.943 L 200.922 59.943 Z M 202.795 59.422 L 203.442 59.422 C 203.699 59.422 203.889 59.369 204.014 59.261 C 204.138 59.153 204.202 58.993 204.202 58.781 C 204.211 58.597 204.142 58.418 204.012 58.287 C 203.886 58.164 203.702 58.103 203.457 58.103 L 202.795 58.103 L 202.795 59.423 L 202.795 59.422 Z M 202.795 60.122 L 202.795 61.934 L 201.882 61.934 L 201.882 57.402 L 203.457 57.402 C 203.976 57.402 204.382 57.52 204.675 57.755 C 204.967 57.992 205.114 58.32 205.114 58.741 C 205.119 58.957 205.054 59.168 204.928 59.343 C 204.787 59.525 204.599 59.666 204.385 59.752 C 204.655 59.832 204.848 59.964 204.965 60.148 C 205.083 60.332 205.143 60.561 205.143 60.833 L 205.143 61.166 C 205.143 61.292 205.159 61.424 205.194 61.562 C 205.229 61.7 205.287 61.802 205.371 61.869 L 205.371 61.934 L 204.43 61.934 C 204.346 61.867 204.292 61.758 204.268 61.604 C 204.245 61.457 204.233 61.308 204.233 61.159 L 204.233 60.839 C 204.233 60.613 204.171 60.437 204.046 60.311 C 203.922 60.186 203.746 60.123 203.52 60.123 L 202.795 60.123 L 202.795 60.122 Z M 206.024 61.934 L 206.937 61.934 L 206.937 57.402 L 206.024 57.402 L 206.024 61.934 Z M 210.44 59.942 L 208.753 59.942 L 208.753 61.237 L 210.759 61.237 L 210.759 61.934 L 207.84 61.934 L 207.84 57.402 L 210.753 57.402 L 210.753 58.102 L 208.753 58.102 L 208.753 59.242 L 210.44 59.242 L 210.44 59.942 Z M 215.007 57.403 L 215.007 60.368 C 215.007 60.878 214.837 61.278 214.498 61.568 C 214.158 61.855 213.718 62 213.175 62 C 212.635 62 212.198 61.855 211.861 61.567 C 211.524 61.278 211.356 60.879 211.356 60.368 L 211.356 57.403 L 212.272 57.403 L 212.272 60.368 C 212.272 60.672 212.353 60.902 212.516 61.063 C 212.678 61.223 212.898 61.302 213.175 61.302 C 213.457 61.302 213.68 61.222 213.844 61.062 C 214.009 60.902 214.091 60.672 214.091 60.368 L 214.091 57.403 L 215.007 57.403 L 215.007 57.403 Z M 216.71 59.422 L 217.358 59.422 C 217.614 59.422 217.805 59.369 217.93 59.261 C 218.054 59.153 218.118 58.993 218.118 58.781 C 218.127 58.597 218.058 58.418 217.928 58.287 C 217.802 58.164 217.618 58.103 217.373 58.103 L 216.711 58.103 L 216.711 59.423 L 216.71 59.422 Z M 216.71 60.122 L 216.71 61.934 L 215.798 61.934 L 215.798 57.402 L 217.373 57.402 C 217.892 57.402 218.298 57.52 218.59 57.755 C 218.883 57.992 219.03 58.32 219.03 58.741 C 219.035 58.957 218.97 59.168 218.844 59.343 C 218.703 59.526 218.515 59.667 218.301 59.752 C 218.571 59.832 218.764 59.964 218.881 60.148 C 218.999 60.332 219.059 60.561 219.059 60.833 L 219.059 61.166 C 219.059 61.292 219.075 61.424 219.11 61.562 C 219.145 61.7 219.203 61.802 219.287 61.869 L 219.287 61.934 L 218.346 61.934 C 218.262 61.867 218.208 61.758 218.184 61.604 C 218.161 61.457 218.149 61.308 218.149 61.159 L 218.149 60.839 C 218.149 60.613 218.086 60.437 217.962 60.311 C 217.839 60.186 217.662 60.123 217.436 60.123 L 216.711 60.123 L 216.71 60.122 Z M 222.384 59.59 L 223.212 59.59 C 223.467 59.59 223.66 59.522 223.791 59.384 C 223.924 59.241 223.995 59.051 223.988 58.856 C 223.995 58.657 223.925 58.464 223.792 58.316 C 223.662 58.174 223.469 58.103 223.212 58.103 L 222.384 58.103 L 222.384 59.591 L 222.384 59.59 Z M 222.384 60.291 L 222.384 61.934 L 221.472 61.934 L 221.472 57.403 L 223.212 57.403 C 223.735 57.403 224.147 57.536 224.447 57.801 C 224.747 58.066 224.897 58.416 224.897 58.85 C 224.897 59.284 224.747 59.632 224.447 59.895 C 224.147 60.159 223.735 60.291 223.212 60.291 L 222.384 60.291 L 222.384 60.291 Z M 226.463 59.422 L 227.11 59.422 C 227.366 59.422 227.557 59.369 227.682 59.261 C 227.807 59.153 227.87 58.993 227.87 58.781 C 227.879 58.597 227.81 58.418 227.68 58.287 C 227.555 58.164 227.37 58.103 227.126 58.103 L 226.463 58.103 L 226.463 59.423 L 226.463 59.422 Z M 226.463 60.122 L 226.463 61.934 L 225.551 61.934 L 225.551 57.402 L 227.126 57.402 C 227.644 57.402 228.05 57.52 228.343 57.755 C 228.636 57.992 228.783 58.32 228.783 58.741 C 228.788 58.957 228.722 59.168 228.596 59.343 C 228.455 59.525 228.268 59.667 228.054 59.752 C 228.323 59.832 228.516 59.964 228.634 60.148 C 228.751 60.332 228.811 60.561 228.811 60.833 L 228.811 61.166 C 228.811 61.292 228.828 61.424 228.862 61.562 C 228.897 61.7 228.956 61.802 229.039 61.869 L 229.039 61.934 L 228.099 61.934 C 228.014 61.867 227.961 61.758 227.937 61.604 C 227.914 61.457 227.902 61.308 227.901 61.159 L 227.901 60.839 C 227.901 60.613 227.839 60.437 227.715 60.311 C 227.592 60.186 227.415 60.123 227.188 60.123 L 226.463 60.123 L 226.463 60.122 Z M 229.692 61.934 L 230.605 61.934 L 230.605 57.402 L 229.692 57.402 L 229.692 61.934 Z M 233.059 60.705 L 233.115 60.953 L 233.134 60.953 L 233.186 60.714 L 234.178 57.402 L 235.14 57.402 L 233.592 61.934 L 232.656 61.934 L 231.112 57.402 L 232.074 57.402 L 233.059 60.705 Z M 237.222 56.127 L 238.238 56.127 L 238.244 56.146 L 237.379 56.954 L 236.599 56.954 L 237.222 56.127 L 237.222 56.127 Z M 238.182 59.943 L 236.494 59.943 L 236.494 61.237 L 238.5 61.237 L 238.5 61.935 L 235.581 61.935 L 235.581 57.403 L 238.494 57.403 L 238.494 58.103 L 236.494 58.103 L 236.494 59.243 L 238.181 59.243 L 238.181 59.943 L 238.182 59.943 Z" style="fill: rgb(0, 0, 0);"/>
  </g>
</svg>